<mxfile host="app.diagrams.net" agent="Mozilla/5.0 (Macintosh; Intel Mac OS X 10_15_7) AppleWebKit/605.1.15 (KHTML, like Gecko) Version/18.5 Safari/605.1.15" version="27.2.0">
  <diagram name="View Interfaces UML" id="v1">
    <mxGraphModel dx="2549" dy="1017" grid="1" gridSize="10" guides="1" tooltips="1" connect="1" arrows="1" fold="1" page="1" pageScale="1" pageWidth="827" pageHeight="1169" math="0" shadow="0">
      <root>
        <mxCell id="0" />
        <mxCell id="1" parent="0" />
        <mxCell id="fNgl6SdFIQMw--C-yd6W-22" style="edgeStyle=orthogonalEdgeStyle;rounded=0;orthogonalLoop=1;jettySize=auto;html=1;exitX=0.5;exitY=1;exitDx=0;exitDy=0;endSize=10;endArrow=diamond;endFill=1;" edge="1" parent="1" source="th7fd5ovUdhD5Mqq8RVe-1" target="fNgl6SdFIQMw--C-yd6W-21">
          <mxGeometry relative="1" as="geometry" />
        </mxCell>
        <mxCell id="th7fd5ovUdhD5Mqq8RVe-1" value="&lt;p style=&quot;margin:0px;margin-top:4px;text-align:center;&quot;&gt;&lt;i&gt;&amp;lt;&amp;lt;Interface&amp;gt;&amp;gt;&lt;/i&gt;&lt;br&gt;&lt;b&gt;View&lt;/b&gt;&lt;/p&gt;&lt;hr size=&quot;1&quot; style=&quot;border-style:solid;&quot;&gt;&lt;p style=&quot;margin:0px;margin-left:4px;&quot;&gt;&lt;span style=&quot;background-color: transparent; color: light-dark(rgb(0, 0, 0), rgb(255, 255, 255));&quot;&gt;+ close() : void&lt;/span&gt;&lt;/p&gt;&lt;p style=&quot;margin:0px;margin-left:4px;&quot;&gt;&lt;span style=&quot;background-color: transparent; color: light-dark(rgb(0, 0, 0), rgb(255, 255, 255));&quot;&gt;+ update(deltaTime: float) : void&lt;/span&gt;&lt;/p&gt;" style="verticalAlign=top;align=left;overflow=fill;html=1;whiteSpace=wrap;rounded=1;arcSize=4;" parent="1" vertex="1">
          <mxGeometry x="-526.5" y="469" width="185.5" height="80" as="geometry" />
        </mxCell>
        <mxCell id="th7fd5ovUdhD5Mqq8RVe-10" style="edgeStyle=orthogonalEdgeStyle;rounded=0;orthogonalLoop=1;jettySize=auto;html=1;exitX=0.5;exitY=1;exitDx=0;exitDy=0;entryX=0.5;entryY=0;entryDx=0;entryDy=0;endSize=10;endArrow=diamond;endFill=1;" parent="1" source="th7fd5ovUdhD5Mqq8RVe-11" target="th7fd5ovUdhD5Mqq8RVe-1" edge="1">
          <mxGeometry relative="1" as="geometry" />
        </mxCell>
        <mxCell id="th7fd5ovUdhD5Mqq8RVe-11" value="&lt;p style=&quot;margin:0px;margin-top:4px;text-align:center;&quot;&gt;&lt;i&gt;&amp;lt;&amp;lt;Interface&amp;gt;&amp;gt;&lt;/i&gt;&lt;br&gt;&lt;b&gt;Panel&lt;/b&gt;&lt;/p&gt;&lt;hr size=&quot;1&quot; style=&quot;border-style:solid;&quot;&gt;&lt;p style=&quot;margin:0px;margin-left:4px;&quot;&gt;&lt;span style=&quot;text-align: center;&quot;&gt;+ update(Float) : void&lt;/span&gt;&lt;br style=&quot;text-align: center;&quot;&gt;&lt;span style=&quot;text-align: center;&quot;&gt;+ setViewState(state: ViewState) : void&lt;/span&gt;&lt;/p&gt;" style="verticalAlign=top;align=left;overflow=fill;html=1;whiteSpace=wrap;rounded=1;arcSize=7;" parent="1" vertex="1">
          <mxGeometry x="-543.63" y="336.5" width="219.75" height="77" as="geometry" />
        </mxCell>
        <mxCell id="th7fd5ovUdhD5Mqq8RVe-18" style="edgeStyle=orthogonalEdgeStyle;rounded=0;orthogonalLoop=1;jettySize=auto;html=1;exitX=0;exitY=0.5;exitDx=0;exitDy=0;entryX=1;entryY=0.5;entryDx=0;entryDy=0;endSize=10;endArrow=diamond;endFill=1;" parent="1" source="th7fd5ovUdhD5Mqq8RVe-19" target="th7fd5ovUdhD5Mqq8RVe-11" edge="1">
          <mxGeometry relative="1" as="geometry" />
        </mxCell>
        <mxCell id="th7fd5ovUdhD5Mqq8RVe-19" value="&lt;p style=&quot;margin:0px;margin-top:4px;text-align:center;&quot;&gt;&lt;i&gt;&amp;lt;&amp;lt;Interface&amp;gt;&amp;gt;&lt;/i&gt;&lt;br&gt;&lt;b&gt;ViewState&lt;/b&gt;&lt;/p&gt;&lt;hr size=&quot;1&quot; style=&quot;border-style:solid;&quot;&gt;&lt;p style=&quot;margin:0px;margin-left:4px;&quot;&gt;&lt;span style=&quot;text-align: center;&quot;&gt;+ onEnter() : void&lt;/span&gt;&lt;br style=&quot;text-align: center;&quot;&gt;&lt;span style=&quot;text-align: center;&quot;&gt;+ onExit() : void&lt;/span&gt;&lt;br style=&quot;text-align: center;&quot;&gt;&lt;span style=&quot;text-align: center;&quot;&gt;+ draw() : void&lt;/span&gt;&lt;/p&gt;" style="verticalAlign=top;align=left;overflow=fill;html=1;whiteSpace=wrap;rounded=1;arcSize=7;" parent="1" vertex="1">
          <mxGeometry x="-287.25" y="328" width="203" height="94" as="geometry" />
        </mxCell>
        <mxCell id="fNgl6SdFIQMw--C-yd6W-1" style="edgeStyle=orthogonalEdgeStyle;rounded=0;orthogonalLoop=1;jettySize=auto;html=1;exitX=1;exitY=0.5;exitDx=0;exitDy=0;endSize=10;endArrow=diamond;endFill=1;" edge="1" parent="1" source="th7fd5ovUdhD5Mqq8RVe-22" target="th7fd5ovUdhD5Mqq8RVe-1">
          <mxGeometry relative="1" as="geometry" />
        </mxCell>
        <mxCell id="th7fd5ovUdhD5Mqq8RVe-22" value="&lt;p style=&quot;margin:0px;margin-top:4px;text-align:center;&quot;&gt;&lt;i&gt;&amp;lt;&amp;lt;Interface&amp;gt;&amp;gt;&lt;/i&gt;&lt;br&gt;&lt;b&gt;SoundManager&lt;/b&gt;&lt;/p&gt;&lt;hr size=&quot;1&quot; style=&quot;border-style:solid;&quot;&gt;&lt;p style=&quot;margin:0px;margin-left:4px;&quot;&gt;&lt;span style=&quot;&quot;&gt;+ play(event: Event) : void&lt;/span&gt;&lt;br style=&quot;&quot;&gt;&lt;span style=&quot;&quot;&gt;+ stop(event: Event) : void&lt;/span&gt;&lt;/p&gt;&lt;p style=&quot;margin:0px;margin-left:4px;&quot;&gt;&lt;span style=&quot;&quot;&gt;+ loop(event: Event): void&lt;/span&gt;&lt;/p&gt;&lt;p style=&quot;margin:0px;margin-left:4px;&quot;&gt;&lt;span style=&quot;&quot;&gt;+ stopAll(): void&lt;/span&gt;&lt;/p&gt;&lt;p style=&quot;margin:0px;margin-left:4px;&quot;&gt;&lt;span style=&quot;&quot;&gt;+ dispose(): void&lt;/span&gt;&lt;/p&gt;" style="verticalAlign=top;align=left;overflow=fill;html=1;whiteSpace=wrap;rounded=1;arcSize=6;" parent="1" vertex="1">
          <mxGeometry x="-728.18" y="447" width="155.62" height="124" as="geometry" />
        </mxCell>
        <mxCell id="fNgl6SdFIQMw--C-yd6W-6" style="edgeStyle=orthogonalEdgeStyle;rounded=0;orthogonalLoop=1;jettySize=auto;html=1;exitX=1;exitY=0.5;exitDx=0;exitDy=0;entryX=0.5;entryY=1;entryDx=0;entryDy=0;endSize=10;endArrow=block;endFill=0;" edge="1" parent="1" source="fNgl6SdFIQMw--C-yd6W-2" target="th7fd5ovUdhD5Mqq8RVe-19">
          <mxGeometry relative="1" as="geometry" />
        </mxCell>
        <mxCell id="fNgl6SdFIQMw--C-yd6W-2" value="&lt;p style=&quot;margin:0px;margin-top:4px;text-align:center;&quot;&gt;&lt;br&gt;&lt;b&gt;MenuView&lt;/b&gt;&lt;/p&gt;" style="verticalAlign=top;align=left;overflow=fill;html=1;whiteSpace=wrap;rounded=1;arcSize=7;dashed=1;" vertex="1" parent="1">
          <mxGeometry x="-310.75" y="458" width="100" height="46" as="geometry" />
        </mxCell>
        <mxCell id="fNgl6SdFIQMw--C-yd6W-8" style="edgeStyle=orthogonalEdgeStyle;rounded=0;orthogonalLoop=1;jettySize=auto;html=1;exitX=1;exitY=0.5;exitDx=0;exitDy=0;entryX=0.5;entryY=1;entryDx=0;entryDy=0;endSize=10;endArrow=block;endFill=0;" edge="1" parent="1" source="fNgl6SdFIQMw--C-yd6W-3" target="th7fd5ovUdhD5Mqq8RVe-19">
          <mxGeometry relative="1" as="geometry" />
        </mxCell>
        <mxCell id="fNgl6SdFIQMw--C-yd6W-3" value="&lt;p style=&quot;margin:0px;margin-top:4px;text-align:center;&quot;&gt;&lt;br&gt;&lt;b&gt;InGameView&lt;/b&gt;&lt;/p&gt;" style="verticalAlign=top;align=left;overflow=fill;html=1;whiteSpace=wrap;rounded=1;arcSize=7;dashed=1;" vertex="1" parent="1">
          <mxGeometry x="-310.75" y="514" width="100" height="46" as="geometry" />
        </mxCell>
        <mxCell id="fNgl6SdFIQMw--C-yd6W-9" style="edgeStyle=orthogonalEdgeStyle;rounded=0;orthogonalLoop=1;jettySize=auto;html=1;exitX=0;exitY=0.5;exitDx=0;exitDy=0;entryX=0.5;entryY=1;entryDx=0;entryDy=0;endSize=10;endArrow=block;endFill=0;" edge="1" parent="1" source="fNgl6SdFIQMw--C-yd6W-4" target="th7fd5ovUdhD5Mqq8RVe-19">
          <mxGeometry relative="1" as="geometry" />
        </mxCell>
        <mxCell id="fNgl6SdFIQMw--C-yd6W-4" value="&lt;p style=&quot;margin:0px;margin-top:4px;text-align:center;&quot;&gt;&lt;br&gt;&lt;b&gt;GameOverView&lt;/b&gt;&lt;/p&gt;" style="verticalAlign=top;align=left;overflow=fill;html=1;whiteSpace=wrap;rounded=1;arcSize=7;dashed=1;" vertex="1" parent="1">
          <mxGeometry x="-160.75" y="514" width="100" height="46" as="geometry" />
        </mxCell>
        <mxCell id="fNgl6SdFIQMw--C-yd6W-7" style="edgeStyle=orthogonalEdgeStyle;rounded=0;orthogonalLoop=1;jettySize=auto;html=1;exitX=0;exitY=0.5;exitDx=0;exitDy=0;entryX=0.5;entryY=1;entryDx=0;entryDy=0;endSize=10;endArrow=block;endFill=0;" edge="1" parent="1" source="fNgl6SdFIQMw--C-yd6W-5" target="th7fd5ovUdhD5Mqq8RVe-19">
          <mxGeometry relative="1" as="geometry" />
        </mxCell>
        <mxCell id="fNgl6SdFIQMw--C-yd6W-5" value="&lt;p style=&quot;margin:0px;margin-top:4px;text-align:center;&quot;&gt;&lt;br&gt;&lt;b&gt;PauseView&lt;/b&gt;&lt;/p&gt;" style="verticalAlign=top;align=left;overflow=fill;html=1;whiteSpace=wrap;rounded=1;arcSize=7;dashed=1;" vertex="1" parent="1">
          <mxGeometry x="-160.75" y="458" width="100" height="46" as="geometry" />
        </mxCell>
        <mxCell id="fNgl6SdFIQMw--C-yd6W-11" style="edgeStyle=orthogonalEdgeStyle;rounded=0;orthogonalLoop=1;jettySize=auto;html=1;exitX=0.5;exitY=0;exitDx=0;exitDy=0;entryX=0.5;entryY=1;entryDx=0;entryDy=0;endSize=10;endArrow=diamond;endFill=1;" edge="1" parent="1" source="fNgl6SdFIQMw--C-yd6W-10" target="fNgl6SdFIQMw--C-yd6W-3">
          <mxGeometry relative="1" as="geometry" />
        </mxCell>
        <mxCell id="fNgl6SdFIQMw--C-yd6W-10" value="&lt;p style=&quot;margin:0px;margin-top:4px;text-align:center;&quot;&gt;&lt;i&gt;&amp;lt;&amp;lt;Interface&amp;gt;&amp;gt;&lt;/i&gt;&lt;br&gt;&lt;b&gt;RenderManager&lt;/b&gt;&lt;/p&gt;&lt;hr size=&quot;1&quot; style=&quot;border-style:solid;&quot;&gt;&lt;p style=&quot;margin:0px;margin-left:4px;&quot;&gt;&lt;span style=&quot;text-align: center;&quot;&gt;+ render() : void&lt;/span&gt;&lt;br&gt;&lt;/p&gt;" style="verticalAlign=top;align=left;overflow=fill;html=1;whiteSpace=wrap;rounded=1;arcSize=6;" vertex="1" parent="1">
          <mxGeometry x="-310.75" y="607" width="100" height="70" as="geometry" />
        </mxCell>
        <mxCell id="fNgl6SdFIQMw--C-yd6W-21" value="&lt;p style=&quot;margin:0px;margin-top:4px;text-align:center;&quot;&gt;&lt;i&gt;&amp;lt;&amp;lt;Interface&amp;gt;&amp;gt;&lt;/i&gt;&lt;br&gt;&lt;b&gt;Engine&lt;/b&gt;&lt;/p&gt;&lt;hr size=&quot;1&quot; style=&quot;border-style:solid;&quot;&gt;&lt;p style=&quot;margin:0px;margin-left:4px;&quot;&gt;+ run() : void&lt;/p&gt;" style="verticalAlign=top;align=left;overflow=fill;html=1;whiteSpace=wrap;rounded=1;arcSize=6;" vertex="1" parent="1">
          <mxGeometry x="-478.75" y="607" width="90" height="70" as="geometry" />
        </mxCell>
        <mxCell id="fNgl6SdFIQMw--C-yd6W-29" style="edgeStyle=orthogonalEdgeStyle;rounded=0;orthogonalLoop=1;jettySize=auto;html=1;exitX=1;exitY=0.5;exitDx=0;exitDy=0;entryX=0;entryY=0.5;entryDx=0;entryDy=0;endArrow=diamond;endFill=1;endSize=10;" edge="1" parent="1" source="fNgl6SdFIQMw--C-yd6W-23" target="fNgl6SdFIQMw--C-yd6W-21">
          <mxGeometry relative="1" as="geometry" />
        </mxCell>
        <mxCell id="fNgl6SdFIQMw--C-yd6W-23" value="&lt;p style=&quot;margin:0px;margin-top:4px;text-align:center;&quot;&gt;&lt;i&gt;&amp;lt;&amp;lt;Interface&amp;gt;&amp;gt;&lt;/i&gt;&lt;br&gt;&lt;b&gt;ResourceLoader&lt;/b&gt;&lt;/p&gt;&lt;hr size=&quot;1&quot; style=&quot;border-style:solid;&quot;&gt;&lt;p style=&quot;margin:0px;margin-left:4px;&quot;&gt;+ loadMap(path: String) : List&amp;lt;String&amp;gt;&lt;/p&gt;&lt;p style=&quot;margin:0px;margin-left:4px;&quot;&gt;+ loadImage(path: String) : BufferedImage&lt;/p&gt;&lt;p style=&quot;margin:0px;margin-left:4px;&quot;&gt;+ loadFont(path: String) : Font&lt;/p&gt;&lt;p style=&quot;margin:0px;margin-left:4px;&quot;&gt;+ loadCLip(path: String) : Clip&lt;/p&gt;" style="verticalAlign=top;align=left;overflow=fill;html=1;whiteSpace=wrap;rounded=1;arcSize=4;" vertex="1" parent="1">
          <mxGeometry x="-767" y="587" width="233.25" height="110" as="geometry" />
        </mxCell>
        <mxCell id="fNgl6SdFIQMw--C-yd6W-31" style="edgeStyle=orthogonalEdgeStyle;rounded=0;orthogonalLoop=1;jettySize=auto;html=1;exitX=0;exitY=0.5;exitDx=0;exitDy=0;entryX=1;entryY=0.5;entryDx=0;entryDy=0;endArrow=diamond;endFill=1;endSize=10;" edge="1" parent="1" source="fNgl6SdFIQMw--C-yd6W-24" target="fNgl6SdFIQMw--C-yd6W-26">
          <mxGeometry relative="1" as="geometry" />
        </mxCell>
        <mxCell id="fNgl6SdFIQMw--C-yd6W-24" value="&lt;p style=&quot;margin:0px;margin-top:4px;text-align:center;&quot;&gt;&lt;i&gt;&amp;lt;&amp;lt;Interface&amp;gt;&amp;gt;&lt;/i&gt;&lt;br&gt;&lt;b&gt;Model&lt;/b&gt;&lt;/p&gt;&lt;hr size=&quot;1&quot; style=&quot;border-style:solid;&quot;&gt;&lt;p style=&quot;margin:0px;margin-left:4px;&quot;&gt;&lt;span style=&quot;background-color: transparent; color: light-dark(rgb(0, 0, 0), rgb(255, 255, 255));&quot;&gt;+ close() : void&lt;/span&gt;&lt;/p&gt;&lt;p style=&quot;margin:0px;margin-left:4px;&quot;&gt;&lt;span style=&quot;background-color: transparent; color: light-dark(rgb(0, 0, 0), rgb(255, 255, 255));&quot;&gt;+ update(deltaTime: float) : void&lt;/span&gt;&lt;/p&gt;" style="verticalAlign=top;align=left;overflow=fill;html=1;whiteSpace=wrap;rounded=1;arcSize=4;" vertex="1" parent="1">
          <mxGeometry x="-274" y="747" width="176.5" height="80" as="geometry" />
        </mxCell>
        <mxCell id="fNgl6SdFIQMw--C-yd6W-30" style="edgeStyle=orthogonalEdgeStyle;rounded=0;orthogonalLoop=1;jettySize=auto;html=1;exitX=0.5;exitY=0;exitDx=0;exitDy=0;entryX=0.5;entryY=1;entryDx=0;entryDy=0;endArrow=diamond;endFill=1;endSize=10;" edge="1" parent="1" source="fNgl6SdFIQMw--C-yd6W-26" target="fNgl6SdFIQMw--C-yd6W-21">
          <mxGeometry relative="1" as="geometry" />
        </mxCell>
        <mxCell id="fNgl6SdFIQMw--C-yd6W-26" value="&lt;p style=&quot;margin:0px;margin-top:4px;text-align:center;&quot;&gt;&lt;i&gt;&amp;lt;&amp;lt;Interface&amp;gt;&amp;gt;&lt;/i&gt;&lt;br&gt;&lt;b&gt;Controller&lt;/b&gt;&lt;/p&gt;&lt;hr size=&quot;1&quot; style=&quot;border-style:solid;&quot;&gt;&lt;p style=&quot;margin:0px;margin-left:4px;&quot;&gt;+ processInput() : void&lt;/p&gt;&lt;p style=&quot;margin:0px;margin-left:4px;&quot;&gt;+ updateModel() : void&lt;/p&gt;&lt;p style=&quot;margin:0px;margin-left:4px;&quot;&gt;+ keyPressed(keyCode: int) : void&amp;nbsp;&lt;/p&gt;&lt;p style=&quot;margin:0px;margin-left:4px;&quot;&gt;+ keyReleased(keyCode: int) : void&lt;/p&gt;" style="verticalAlign=top;align=left;overflow=fill;html=1;whiteSpace=wrap;rounded=1;arcSize=4;" vertex="1" parent="1">
          <mxGeometry x="-533.75" y="732" width="200" height="110" as="geometry" />
        </mxCell>
      </root>
    </mxGraphModel>
  </diagram>
</mxfile>
